<svg xmlns:xlink="http://www.w3.org/1999/xlink" width="1132" height="804" xmlns:ev="http://www.w3.org/2001/xml-events" xmlns="http://www.w3.org/2000/svg" viewBox="0 0 1132 804"><defs/><g id="page1" transform="translate(5.5,5.5)"><rect x="0" width="1123" y="0" height="794" fill="#ffffff"/><g id="group1" transform="translate(256.70,355.68)"><path id="shape2" d="M.0,.0L546.4,.0L546.4,133.4L.0,133.4L.0,.0z" fill-rule="nonzero" transform="translate(0.00,17.11)" fill="#ffffff"/><g id="shape3" transform="translate(91.99,0.00)"><text xml:space="preserve" style="font-family:Arial;font-size:10.00pt"><tspan x="3.4" y="87.5" style="fill:#023e8a;font-family:Times New Roman;font-size:68.00pt;font-style:italic">Sec  Seeker</tspan></text></g></g><path id="shape4" d="M29.1,29.9C28.0,31.1,26.3,31.1,25.2,29.9C25.2,29.9,22.9,27.2,21.1,25.4C19.0,26.7,16.5,27.5,13.8,27.5C6.2,27.5,.0,21.4,.0,13.8C.0,6.2,6.2,.0,13.8,.0C21.4,.0,27.5,6.2,27.5,13.8C27.5,16.5,26.7,19.1,25.3,21.3C27.1,23.1,29.1,25.5,29.1,25.5C30.2,26.7,30.2,28.7,29.1,29.9zM25.9,13.8C25.9,7.1,20.5,1.6,13.8,1.6C7.1,1.6,1.6,7.1,1.6,13.8C1.6,20.5,7.1,25.9,13.8,25.9C20.5,25.9,25.9,20.5,25.9,13.8zM28.0,26.5C28.0,26.5,25.1,23.6,24.3,22.7C24.3,22.7,24.3,22.7,24.3,22.6C23.8,23.2,23.2,23.8,22.7,24.3C22.7,24.3,22.7,24.3,22.7,24.3C23.5,25.2,26.2,28.7,26.2,28.7C26.7,29.3,27.5,29.3,28.0,28.7C28.5,28.1,28.5,27.1,28.0,26.5zM7.1,7.9C5.7,9.5,4.9,11.5,4.9,13.8C4.9,14.0,4.9,14.3,4.9,14.6L4.9,14.6C4.9,15.0,4.5,15.4,4.0,15.4C3.6,15.4,3.2,15.0,3.2,14.6C3.2,14.4,3.2,14.0,3.2,13.8C3.2,11.2,4.2,8.8,5.7,7.0C5.9,6.7,6.1,6.5,6.5,6.5C6.9,6.5,7.3,6.8,7.3,7.3C7.3,7.5,7.2,7.7,7.0,7.9L7.1,7.9z" fill-rule="nonzero" transform="translate(491.26,397.67)" fill="#3a0ca3"/></g></svg>