<?xml version="1.0" standalone="no"?><!DOCTYPE svg PUBLIC "-//W3C//DTD SVG 1.1//EN" "http://www.w3.org/Graphics/SVG/1.1/DTD/svg11.dtd"><svg t="1652009309648" class="icon" viewBox="0 0 1024 1024" version="1.1" xmlns="http://www.w3.org/2000/svg" p-id="10715" xmlns:xlink="http://www.w3.org/1999/xlink" width="200" height="200"><defs><style type="text/css">@font-face { font-family: feedback-iconfont; src: url("//at.alicdn.com/t/font_1031158_u69w8yhxdu.woff2?t=1630033759944") format("woff2"), url("//at.alicdn.com/t/font_1031158_u69w8yhxdu.woff?t=1630033759944") format("woff"), url("//at.alicdn.com/t/font_1031158_u69w8yhxdu.ttf?t=1630033759944") format("truetype"); }
</style></defs><path d="M810.666667 234.666667H213.333333A149.333333 149.333333 0 0 0 64 384v384A149.333333 149.333333 0 0 0 213.333333 917.333333h597.333334a149.333333 149.333333 0 0 0 149.333333-149.333333V384A149.333333 149.333333 0 0 0 810.666667 234.666667zM810.666667 298.666667a85.333333 85.333333 0 0 1 85.333333 85.333333v384a85.333333 85.333333 0 0 1-85.333333 85.333333H213.333333a85.333333 85.333333 0 0 1-85.333333-85.333333V384a85.333333 85.333333 0 0 1 85.333333-85.333333h597.333334z" fill="#333333" p-id="10716"></path><path d="M618.666667 42.666667h-213.333334A106.666667 106.666667 0 0 0 298.666667 149.333333V298.666667h426.666666V149.333333A106.666667 106.666667 0 0 0 618.666667 42.666667z m0 64a42.666667 42.666667 0 0 1 42.666666 42.666666v85.333334h-298.666666v-85.333334a42.666667 42.666667 0 0 1 42.666666-42.666666h213.333334z" fill="#333333" p-id="10717"></path><path d="M341.333333 554.666667m32 0l277.333334 0q32 0 32 32l0 0q0 32-32 32l-277.333334 0q-32 0-32-32l0 0q0-32 32-32Z" fill="#FE6058" p-id="10718"></path><path d="M544 416m0 32l0 277.333333q0 32-32 32l0 0q-32 0-32-32l0-277.333333q0-32 32-32l0 0q32 0 32 32Z" fill="#FE6058" p-id="10719"></path></svg>