<?xml version="1.0" standalone="no"?><!DOCTYPE svg PUBLIC "-//W3C//DTD SVG 1.1//EN" "http://www.w3.org/Graphics/SVG/1.1/DTD/svg11.dtd"><svg t="1652009057519" class="icon" viewBox="0 0 1024 1024" version="1.1" xmlns="http://www.w3.org/2000/svg" p-id="7363" xmlns:xlink="http://www.w3.org/1999/xlink" width="200" height="200"><defs><style type="text/css">@font-face { font-family: feedback-iconfont; src: url("//at.alicdn.com/t/font_1031158_u69w8yhxdu.woff2?t=1630033759944") format("woff2"), url("//at.alicdn.com/t/font_1031158_u69w8yhxdu.woff?t=1630033759944") format("woff"), url("//at.alicdn.com/t/font_1031158_u69w8yhxdu.ttf?t=1630033759944") format("truetype"); }
</style></defs><path d="M959.9 190.4c-0.1-44.2-4.7-78.2-26.8-100.3-22-22.1-55.9-26.8-100-26.9-158.6-0.6-321.2-0.6-497.3 0-46.3 0.2-77.6 10.2-98.5 31.6-15.1 15.4-24 36.1-27.3 63.7h-0.1c-58.9-2.3-97-1.4-120.4 21.5-25.4 24.7-26 67.6-24.8 135.7 1.8 107.9 1.4 217.7 1.1 324-0.2 63.6-0.4 129.3-0.2 194 0.2 44.2 4.8 78.2 26.8 100.3 22.1 22.2 55.9 26.8 100 26.9 107 0.3 213.3 0.5 318.4 0.5 105.9 0 210.4-0.2 312.8-0.5 37.7-0.1 79.9-3.8 106.2-30.3 21-21 30-52.9 30.1-106.5 0.6-204.8 0.6-418 0-633.7zM916 823.8c-0.1 40.4-5.5 63.8-17.4 75.7-11.9 11.9-35.1 17.3-75.3 17.4-203.9 0.6-416.1 0.6-630.8 0-38.8-0.1-59.4-4.3-69.1-14-9.7-9.7-13.9-30.5-14-69.5-0.2-64.5 0-130.2 0.2-193.7 0.4-106.4 0.7-216.5-1.1-324.8-0.9-53.2-0.6-91.7 11.6-103.5 7.9-7.6 26.9-9.9 53.8-9.9 10.5 0 22.2 0.3 34.9 0.8l0.1 0.1c2.6 133.4 4.8 268.8 6.9 399.8l2.7 164.5c0.2 12 10 21.6 21.9 21.6h0.4c12.1-0.2 21.8-10.2 21.6-22.3-0.9-54.8-1.8-109.6-2.7-164.5-2.2-134.8-4.4-274.3-7.1-411.4-0.6-32.1 4.5-52.6 16.3-64.7 12-12.2 34-18.2 67.3-18.4 176-0.6 338.5-0.6 497 0 38.8 0.2 59.5 4.4 69.1 14 9.7 9.7 13.9 30.5 14 69.5 0.3 215.7 0.3 428.7-0.3 633.3z" p-id="7364"></path><path d="M803.7 504.5H364.5c-12.4 0-22.3 10.2-21.9 22.7 0.4 11.9 10.6 21.2 22.5 21.2h439.2c12.4 0 22.3-10.2 21.9-22.7-0.4-12-10.6-21.2-22.5-21.2zM803.7 619.6H364.5c-12.4 0-22.3 10.2-21.9 22.7 0.4 11.9 10.6 21.2 22.5 21.2h439.2c12.4 0 22.3-10.2 21.9-22.7-0.4-11.9-10.6-21.2-22.5-21.2zM803.7 734.8H364.5c-12.4 0-22.3 10.2-21.9 22.7 0.4 11.9 10.6 21.2 22.5 21.2h439.2c12.4 0 22.3-10.2 21.9-22.7-0.4-11.9-10.6-21.2-22.5-21.2zM803.7 197.4H670.5c-12.4 0-22.3 10.2-21.9 22.7 0.4 11.9 10.6 21.2 22.5 21.2h133.3c12.4 0 22.3-10.2 21.9-22.7-0.5-12-10.7-21.2-22.6-21.2zM803.7 293.3H670.5c-12.4 0-22.3 10.2-21.9 22.7 0.4 11.9 10.6 21.2 22.5 21.2h133.3c12.4 0 22.3-10.2 21.9-22.7-0.5-11.9-10.7-21.2-22.6-21.2zM803.7 389.3H670.5c-12.4 0-22.3 10.2-21.9 22.7 0.4 11.9 10.6 21.2 22.5 21.2h133.3c12.4 0 22.3-10.2 21.9-22.7-0.5-11.9-10.7-21.2-22.6-21.2zM549 437.6c26.1 0 47.3-21.2 47.3-47.3V232c0-26.1-21.2-47.3-47.3-47.3H355.6c-26.1 0-47.3 21.2-47.3 47.3v158.3c0 26.1 21.2 47.3 47.3 47.3H549z m-196.8-47.3V232c0-1.9 1.5-3.4 3.4-3.4H549c1.9 0 3.4 1.5 3.4 3.4v158.3c0 1.9-1.5 3.4-3.4 3.4H355.6c-1.9 0-3.4-1.5-3.4-3.4z" p-id="7365"></path></svg>